<svg width="71" height="70" viewBox="0 0 71 70" fill="none" xmlns="http://www.w3.org/2000/svg">
<path d="M35.3333 28.25C37.1235 28.25 38.8403 27.5388 40.1062 26.273C41.3721 25.0071 42.0833 23.2902 42.0833 21.5C42.0833 19.7098 41.3721 17.9929 40.1062 16.727C38.8403 15.4612 37.1235 14.75 35.3333 14.75C33.543 14.75 31.8262 15.4612 30.5603 16.727C29.2944 17.9929 28.5833 19.7098 28.5833 21.5C28.5833 23.2902 29.2944 25.0071 30.5603 26.273C31.8262 27.5388 33.543 28.25 35.3333 28.25ZM35.3333 24.875C34.4381 24.875 33.5797 24.5194 32.9468 23.8865C32.3138 23.2535 31.9583 22.3951 31.9583 21.5C31.9583 20.6049 32.3138 19.7464 32.9468 19.1135C33.5797 18.4806 34.4381 18.125 35.3333 18.125C36.2284 18.125 37.0868 18.4806 37.7197 19.1135C38.3527 19.7464 38.7083 20.6049 38.7083 21.5C38.7083 22.3951 38.3527 23.2535 37.7197 23.8865C37.0868 24.5194 36.2284 24.875 35.3333 24.875ZM20.1458 28.25C21.4884 28.25 22.7761 27.7166 23.7255 26.7672C24.6749 25.8178 25.2083 24.5302 25.2083 23.1875C25.2083 21.8448 24.6749 20.5572 23.7255 19.6078C22.7761 18.6584 21.4884 18.125 20.1458 18.125C18.8031 18.125 17.5154 18.6584 16.566 19.6078C15.6166 20.5572 15.0833 21.8448 15.0833 23.1875C15.0833 24.5302 15.6166 25.8178 16.566 26.7672C17.5154 27.7166 18.8031 28.25 20.1458 28.25ZM20.1458 24.875C19.6982 24.875 19.269 24.6972 18.9525 24.3807C18.636 24.0643 18.4583 23.6351 18.4583 23.1875C18.4583 22.7399 18.636 22.3107 18.9525 21.9943C19.269 21.6778 19.6982 21.5 20.1458 21.5C20.5933 21.5 21.0225 21.6778 21.339 21.9943C21.6555 22.3107 21.8333 22.7399 21.8333 23.1875C21.8333 23.6351 21.6555 24.0643 21.339 24.3807C21.0225 24.6972 20.5933 24.875 20.1458 24.875ZM55.5833 23.1875C55.5833 23.8523 55.4523 24.5106 55.1979 25.1248C54.9435 25.739 54.5706 26.2971 54.1005 26.7672C53.6304 27.2373 53.0723 27.6102 52.4581 27.8646C51.8439 28.1191 51.1856 28.25 50.5208 28.25C49.8559 28.25 49.1976 28.1191 48.5834 27.8646C47.9692 27.6102 47.4111 27.2373 46.941 26.7672C46.4709 26.2971 46.098 25.739 45.8436 25.1248C45.5892 24.5106 45.4583 23.8523 45.4583 23.1875C45.4583 21.8448 45.9916 20.5572 46.941 19.6078C47.8904 18.6584 49.1781 18.125 50.5208 18.125C51.8634 18.125 53.1511 18.6584 54.1005 19.6078C55.0499 20.5572 55.5833 21.8448 55.5833 23.1875ZM52.2083 23.1875C52.2083 22.7399 52.0305 22.3107 51.714 21.9943C51.3975 21.6778 50.9683 21.5 50.5208 21.5C50.0732 21.5 49.644 21.6778 49.3275 21.9943C49.011 22.3107 48.8333 22.7399 48.8333 23.1875C48.8333 23.6351 49.011 24.0643 49.3275 24.3807C49.644 24.6972 50.0732 24.875 50.5208 24.875C50.9683 24.875 51.3975 24.6972 51.714 24.3807C52.0305 24.0643 52.2083 23.6351 52.2083 23.1875ZM26.8485 32.0502C27.321 31.7802 27.8694 31.625 28.4533 31.625H42.2132C42.8596 31.6238 43.4916 31.8166 44.0273 32.1785C44.8913 32.7624 45.4583 33.7496 45.4583 34.8701V45.125C45.4583 47.8103 44.3915 50.3857 42.4927 52.2845C40.5939 54.1833 38.0186 55.25 35.3333 55.25C32.6479 55.25 30.0726 54.1833 28.1738 52.2845C26.275 50.3857 25.2083 47.8103 25.2083 45.125V34.8701C25.2083 33.6618 25.8681 32.6088 26.8485 32.0502ZM28.5833 45.125C28.5833 46.9152 29.2944 48.6321 30.5603 49.898C31.8262 51.1638 33.543 51.875 35.3333 51.875C37.1235 51.875 38.8403 51.1638 40.1062 49.898C41.3721 48.6321 42.0833 46.9152 42.0833 45.125V35H28.5833V45.125ZM22.677 34.8701C22.677 33.6669 23.0449 32.5497 23.6726 31.625H15.0833C14.1881 31.625 13.3297 31.9806 12.6968 32.6135C12.0638 33.2465 11.7083 34.1049 11.7083 35V43.4375C11.7078 44.8905 12.0826 46.3191 12.7964 47.5847C13.5102 48.8504 14.5387 49.9103 15.7824 50.6617C17.0261 51.4131 18.4427 51.8306 19.8951 51.8738C21.3475 51.917 22.7865 51.5843 24.0726 50.9081C23.5455 49.8843 23.1617 48.793 22.9318 47.6647C22.1686 48.1677 21.2834 48.4548 20.3702 48.4953C19.4571 48.5358 18.5499 48.3284 17.7452 47.8949C16.9404 47.4615 16.268 46.8182 15.7993 46.0334C15.3306 45.2486 15.0832 44.3516 15.0833 43.4375V35H22.677V34.8701ZM50.5208 51.875C49.1033 51.875 47.7668 51.5257 46.5939 50.9081C47.121 49.8843 47.5048 48.793 47.7347 47.6647C48.4979 48.1677 49.3831 48.4548 50.2963 48.4953C51.2094 48.5358 52.1166 48.3284 52.9213 47.8949C53.7261 47.4615 54.3985 46.8182 54.8672 46.0334C55.3359 45.2486 55.5833 44.3516 55.5833 43.4375V35H47.9895V34.8701C47.9895 33.6669 47.6216 32.5497 46.9939 31.625H55.5833C56.4784 31.625 57.3368 31.9806 57.9697 32.6135C58.6027 33.2465 58.9583 34.1049 58.9583 35V43.4375C58.9583 45.6753 58.0693 47.8214 56.487 49.4037C54.9046 50.9861 52.7585 51.875 50.5208 51.875Z" fill="#FFB62B"/>
<rect x="1.83325" y="1.5" width="67" height="67" rx="33.5" stroke="#FFB62B" stroke-width="3"/>
</svg>
