<svg width="70" height="70" viewBox="0 0 70 70" fill="none" xmlns="http://www.w3.org/2000/svg">
<path d="M20.673 51.8749C19.8523 51.8763 19.0352 51.7685 18.243 51.5543C15.8651 50.8762 13.8478 49.2931 12.6237 47.1447C11.3997 44.9963 11.0664 42.4537 11.6955 40.0624L15.6274 25.1449C15.9336 23.9376 16.4779 22.8037 17.2285 21.8097C17.979 20.8158 18.9206 19.9818 19.998 19.3568C21.047 18.7492 22.2061 18.3558 23.4082 18.1994C24.6103 18.043 25.8316 18.1266 27.0011 18.4456C28.2444 18.7908 29.4023 19.3906 30.4016 20.2068C31.4009 21.0231 32.2197 22.0381 32.8061 23.1874H37.1936C37.7775 22.0362 38.5955 21.0198 39.5951 20.2032C40.5948 19.3866 41.7541 18.7879 42.9986 18.4456C44.1682 18.1266 45.3894 18.043 46.5915 18.1994C47.7936 18.3558 48.9527 18.7492 50.0017 19.3568C51.0738 19.9802 52.012 20.8096 52.7621 21.7972C53.5122 22.7848 54.0595 23.9111 54.3724 25.1112L58.3042 40.0624C58.9427 42.4607 58.6121 45.0139 57.3838 47.1704C56.1556 49.3269 54.1283 50.9138 51.7399 51.5881C50.5703 51.907 49.3491 51.9906 48.147 51.8342C46.9449 51.6778 45.7857 51.2844 44.7367 50.6768C43.6628 50.0556 42.7233 49.2269 41.973 48.239C41.2226 47.251 40.6764 46.1236 40.3661 44.9224L40.0624 43.4374H29.9374L29.5492 44.8887C29.239 46.0899 28.6927 47.2173 27.9424 48.2052C27.192 49.1932 26.2525 50.0219 25.1786 50.6431C23.8075 51.4339 22.2557 51.8581 20.673 51.8749ZM24.588 21.4999C23.5696 21.5034 22.5696 21.7708 21.6855 22.2762C20.2998 23.0892 19.2926 24.418 18.8842 25.9718L14.9524 40.8893C14.5409 42.4262 14.7488 44.0631 15.5314 45.4484C16.3139 46.8336 17.6087 47.8566 19.1374 48.2974C19.8756 48.4988 20.6465 48.5518 21.4054 48.4533C22.1643 48.3548 22.8962 48.1068 23.5586 47.7237C24.2483 47.3255 24.8514 46.7934 25.3325 46.1588C25.8135 45.5241 26.1628 44.7997 26.3599 44.0281L27.4061 40.0624H42.5936L43.623 44.0281C43.8235 44.7982 44.1742 45.5211 44.6549 46.1554C45.1356 46.7896 45.7369 47.3225 46.4242 47.7237C47.0899 48.1065 47.8246 48.3542 48.5861 48.4526C49.3477 48.5511 50.1212 48.4983 50.8624 48.2974C52.3929 47.8607 53.6892 46.8376 54.4697 45.4504C55.2502 44.0633 55.4517 42.4242 55.0305 40.8893L51.0986 25.9718C50.9027 25.202 50.5556 24.4788 50.0776 23.8443C49.5996 23.2099 49.0002 22.6768 48.3142 22.2762C47.6485 21.8934 46.9139 21.6457 46.1523 21.5472C45.3908 21.4488 44.6173 21.5015 43.8761 21.7024C42.9595 21.9637 42.1185 22.4399 41.423 23.0915C40.7274 23.743 40.1973 24.5511 39.8767 25.4487L39.4717 26.5624H30.528L30.123 25.4487C29.7996 24.5499 29.2665 23.7412 28.568 23.0897C27.8696 22.4382 27.0258 21.9626 26.1067 21.7024C25.6115 21.5689 25.1009 21.5008 24.588 21.4999Z" fill="#FFB62B"/>
<path d="M24.8748 34.9999C24.2073 34.9999 23.5548 34.802 22.9998 34.4311C22.4448 34.0603 22.0122 33.5332 21.7568 32.9165C21.5013 32.2998 21.4345 31.6212 21.5647 30.9665C21.6949 30.3118 22.0164 29.7104 22.4884 29.2384C22.11604 28.7664 23.5617 28.445 24.2164 28.3147C24.8711 28.1845 25.5497 28.2514 26.1664 28.5068C26.7831 28.7623 27.3102 29.1948 27.6811 29.7498C28.0519 30.3049 28.2498 30.9574 28.2498 31.6249C28.2498 32.52 27.8943 33.3784 27.2613 34.0114C26.6284 34.6443 25.77 34.9999 24.8748 34.9999Z" fill="#FFB62B"/>
<path d="M45.1248 29.9374C46.0568 29.9374 46.8123 29.1819 46.8123 28.2499C46.8123 27.3179 46.0568 26.5624 45.1248 26.5624C44.1929 26.5624 43.4373 27.3179 43.4373 28.2499C43.4373 29.1819 44.1929 29.9374 45.1248 29.9374Z" fill="#FFB62B"/>
<path d="M45.1248 36.6874C46.0568 36.6874 46.8123 35.9319 46.8123 34.9999C46.8123 34.0679 46.0568 33.3124 45.1248 33.3124C44.1929 33.3124 43.4373 34.0679 43.4373 34.9999C43.4373 35.9319 44.1929 36.6874 45.1248 36.6874Z" fill="#FFB62B"/>
<path d="M41.7498 33.3124C42.6818 33.3124 43.4373 32.5569 43.4373 31.6249C43.4373 30.6929 42.6818 29.9374 41.7498 29.9374C40.8179 29.9374 40.0623 30.6929 40.0623 31.6249C40.0623 32.5569 40.8179 33.3124 41.7498 33.3124Z" fill="#FFB62B"/>
<path d="M48.4998 33.3124C49.4318 33.3124 50.1873 32.5569 50.1873 31.6249C50.1873 30.6929 49.4318 29.9374 48.4998 29.9374C47.5679 29.9374 46.8123 30.6929 46.8123 31.6249C46.8123 32.5569 47.5679 33.3124 48.4998 33.3124Z" fill="#FFB62B"/>
<rect x="1.5" y="1.5" width="67" height="67" rx="33.5" stroke="#FFB62B" stroke-width="3"/>
</svg>
