<svg width="25" height="24" viewBox="0 0 25 24" fill="none" xmlns="http://www.w3.org/2000/svg">
<path d="M15.9734 6.69141L15.9805 6.68789H15.984L12.5 4.6875L9.01777 6.68789H9.01426L9.02656 6.69316L6.16309 8.34375V15.6562L12.5 19.3125L18.8369 15.6562V8.34375L15.9734 6.69141ZM11.985 17.8289L9.46953 16.377V13.923L7.19141 12.6293V9.55488L11.985 12.3199V17.8289ZM7.68711 8.65137L10.0549 7.28379L12.4965 8.68477L14.9416 7.28027L17.3182 8.65137L12.5035 11.4287L7.68711 8.65137ZM17.8086 12.6381L15.5445 13.923V16.3682L13.015 17.8271V12.3234L17.8086 9.5584V12.6381Z" fill="white"/>
<rect x="1" y="0.5" width="23" height="23" rx="11.5" stroke="white"/>
</svg>
