<svg width="25" height="24" viewBox="0 0 25 24" fill="none" xmlns="http://www.w3.org/2000/svg">
<path fill-rule="evenodd" clip-rule="evenodd" d="M8.25736 6.52546C9.38258 5.4207 10.9087 4.80005 12.5 4.80005C14.0913 4.80005 15.6174 5.4207 16.7426 6.52546C17.8679 7.63022 18.5 9.12859 18.5 10.691C18.5 11.3564 18.4281 11.9425 18.2406 12.4978C18.0522 13.0559 17.758 13.5502 17.3535 14.0458C17.3482 14.0523 17.3427 14.0588 17.3371 14.0651L13.0038 18.9742C12.8772 19.1176 12.6933 19.2 12.5 19.2C12.3067 19.2 12.1228 19.1176 11.9962 18.9742L7.66287 14.0651C7.65728 14.0588 7.6518 14.0523 7.64646 14.0458C7.24196 13.5502 6.94779 13.0559 6.75936 12.4978C6.57191 11.9425 6.5 11.3564 6.5 10.691C6.5 9.12859 7.13214 7.63022 8.25736 6.52546ZM12.5 6.10914C11.2623 6.10914 10.0753 6.59187 9.20017 7.45112C8.325 8.31038 7.83333 9.47578 7.83333 10.691C7.83333 11.2639 7.89542 11.7021 8.02497 12.0859C8.15252 12.4636 8.3561 12.8201 8.67908 13.2175L12.5 17.5461L16.3209 13.2175C16.6439 12.8201 16.8475 12.4636 16.975 12.0859C17.1046 11.7021 17.1667 11.2639 17.1667 10.691C17.1667 9.47578 16.675 8.31038 15.7998 7.45112C14.9247 6.59187 13.7377 6.10914 12.5 6.10914ZM12.5 9.38187C11.7636 9.38187 11.1667 9.96797 11.1667 10.691C11.1667 11.4139 11.7636 12 12.5 12C13.2364 12 13.8333 11.4139 13.8333 10.691C13.8333 9.96797 13.2364 9.38187 12.5 9.38187ZM9.83333 10.691C9.83333 9.24498 11.0272 8.07278 12.5 8.07278C13.9728 8.07278 15.1667 9.24498 15.1667 10.691C15.1667 12.1369 13.9728 13.3091 12.5 13.3091C11.0272 13.3091 9.83333 12.1369 9.83333 10.691Z" fill="white"/>
<rect x="1" y="0.5" width="23" height="23" rx="11.5" stroke="white"/>
</svg>
