<svg width="71" height="70" viewBox="0 0 71 70" fill="none" xmlns="http://www.w3.org/2000/svg">
<path d="M43.6201 14.318C41.9191 12.617 38.9581 12.617 37.2571 14.318L14.9843 36.5907C14.1413 37.4349 13.6677 38.5792 13.6677 39.7722C13.6677 40.9653 14.1413 42.1096 14.9843 42.9537L27.7126 55.682C28.5631 56.5325 29.6926 57.0005 30.8941 57.0005C32.0956 57.0005 33.2251 56.5325 34.0756 55.682L56.3483 33.4092C57.1988 32.5587 57.6668 31.4292 57.6668 30.2277C57.6668 29.0262 57.1988 27.8967 56.3483 27.0462L43.6201 14.318ZM30.8941 52.5005L18.1658 39.7722L40.4386 17.4995L53.1668 30.2277L30.8941 52.5005Z" fill="#FFB62B"/>
<path d="M28.9166 44C30.1592 44 31.1666 42.9927 31.1666 41.75C31.1666 40.5074 30.1592 39.5 28.9166 39.5C27.6739 39.5 26.6666 40.5074 26.6666 41.75C26.6666 42.9927 27.6739 44 28.9166 44Z" fill="#FFB62B"/>
<path d="M44.0073 56.8407L40.8258 53.6592L54.3258 40.1592L57.5073 43.343L44.0073 56.8407Z" fill="#FFB62B"/>
<path d="M27.3258 13.1592L30.5073 16.3407L17.0073 29.8407L13.8258 26.657L27.3258 13.1592Z" fill="#FFB62B"/>
<rect x="2.1665" y="1.5" width="67" height="67" rx="33.5" stroke="#FFB62B" stroke-width="3"/>
</svg>
