<svg width="80" height="81" viewBox="0 0 80 81" fill="none" xmlns="http://www.w3.org/2000/svg">
<path d="M40 30.5C42.6522 30.5 45.1957 29.4464 47.0711 27.5711C48.9464 25.6957 50 23.1522 50 20.5C50 17.8478 48.9464 15.3043 47.0711 13.4289C45.1957 11.5536 42.6522 10.5 40 10.5C37.3478 10.5 34.8043 11.5536 32.9289 13.4289C31.0536 15.3043 30 17.8478 30 20.5C30 23.1522 31.0536 25.6957 32.9289 27.5711C34.8043 29.4464 37.3478 30.5 40 30.5ZM40 25.5C38.6739 25.5 37.4021 24.9732 36.4645 24.0355C35.5268 23.0979 35 21.8261 35 20.5C35 19.1739 35.5268 17.9021 36.4645 16.9645C37.4021 16.0268 38.6739 15.5 40 15.5C41.3261 15.5 42.5979 16.0268 43.5355 16.9645C44.4732 17.9021 45 19.1739 45 20.5C45 21.8261 44.4732 23.0979 43.5355 24.0355C42.5979 24.9732 41.3261 25.5 40 25.5ZM17.5 30.5C19.4891 30.5 21.3968 29.7098 22.8033 28.3033C24.2098 26.8968 25 24.9891 25 23C25 21.0109 24.2098 19.1032 22.8033 17.6967C21.3968 16.2902 19.4891 15.5 17.5 15.5C15.5109 15.5 13.6032 16.2902 12.1967 17.6967C10.7902 19.1032 10 21.0109 10 23C10 24.9891 10.7902 26.8968 12.1967 28.3033C13.6032 29.7098 15.5109 30.5 17.5 30.5ZM17.5 25.5C16.837 25.5 16.2011 25.2366 15.7322 24.7678C15.2634 24.2989 15 23.663 15 23C15 22.337 15.2634 21.7011 15.7322 21.2322C16.2011 20.7634 16.837 20.5 17.5 20.5C18.163 20.5 18.7989 20.7634 19.2678 21.2322C19.7366 21.7011 20 22.337 20 23C20 23.663 19.7366 24.2989 19.2678 24.7678C18.7989 25.2366 18.163 25.5 17.5 25.5ZM70 23C70 23.9849 69.806 24.9602 69.4291 25.8701C69.0522 26.7801 68.4997 27.6069 67.8033 28.3033C67.1069 28.9997 66.2801 29.5522 65.3701 29.9291C64.4602 30.306 63.4849 30.5 62.5 30.5C61.5151 30.5 60.5398 30.306 59.6299 29.9291C58.7199 29.5522 57.8931 28.9997 57.1967 28.3033C56.5003 27.6069 55.9478 26.7801 55.5709 25.8701C55.194 24.9602 55 23.9849 55 23C55 21.0109 55.7902 19.1032 57.1967 17.6967C58.6032 16.2902 60.5109 15.5 62.5 15.5C64.4891 15.5 66.3968 16.2902 67.8033 17.6967C69.2098 19.1032 70 21.0109 70 23ZM65 23C65 22.337 64.7366 21.7011 64.2678 21.2322C63.7989 20.7634 63.163 20.5 62.5 20.5C61.837 20.5 61.2011 20.7634 60.7322 21.2322C60.2634 21.7011 60 22.337 60 23C60 23.663 60.2634 24.2989 60.7322 24.7678C61.2011 25.2366 61.837 25.5 62.5 25.5C63.163 25.5 63.7989 25.2366 64.2678 24.7678C64.7366 24.2989 65 23.663 65 23ZM27.43 36.13C28.13 35.73 28.9425 35.5 29.8075 35.5H50.1925C51.1502 35.4982 52.0864 35.7839 52.88 36.32C54.16 37.185 55 38.6475 55 40.3075V55.5C55 59.4782 53.4197 63.2936 50.6066 66.1066C47.7936 68.9197 43.9782 70.5 40 70.5C36.0218 70.5 32.2064 68.9197 29.3934 66.1066C26.5804 63.2936 25 59.4782 25 55.5V40.3075C25 38.5175 25.9775 36.9575 27.43 36.13ZM30 55.5C30 58.1522 31.0536 60.6957 32.9289 62.5711C34.8043 64.4464 37.3478 65.5 40 65.5C42.6522 65.5 45.1957 64.4464 47.0711 62.5711C48.9464 60.6957 50 58.1522 50 55.5V40.5H30V55.5ZM21.25 40.3075C21.25 38.525 21.795 36.87 22.725 35.5H10C8.67392 35.5 7.40215 36.0268 6.46447 36.9645C5.52678 37.9021 5 39.1739 5 40.5V53C4.99936 55.1527 5.55465 57.269 6.61209 59.1441C7.66954 61.0191 9.19329 62.5893 11.0358 63.7025C12.8782 64.8157 14.977 65.4343 17.1287 65.4982C19.2804 65.5622 21.4122 65.0694 23.3175 64.0675C22.5367 62.5508 21.968 60.934 21.6275 59.2625C20.4968 60.0078 19.1855 60.433 17.8326 60.493C16.4797 60.5531 15.1358 60.2457 13.9436 59.6036C12.7513 58.9614 11.7552 58.0085 11.0608 56.8458C10.3665 55.6832 9.99993 54.3542 10 53V40.5H21.25V40.3075ZM62.5 65.5C60.4 65.5 58.42 64.9825 56.6825 64.0675C57.4633 62.5508 58.032 60.934 58.3725 59.2625C59.5032 60.0078 60.8145 60.433 62.1674 60.493C63.5203 60.5531 64.8642 60.2457 66.0564 59.6036C67.2487 58.9614 68.2449 58.0085 68.9392 56.8458C69.6335 55.6832 70.0001 54.3542 70 53V40.5H58.75V40.3075C58.75 38.525 58.205 36.87 57.275 35.5H70C71.3261 35.5 72.5979 36.0268 73.5355 36.9645C74.4732 37.9021 75 39.1739 75 40.5V53C75 56.3152 73.683 59.4946 71.3388 61.8388C68.9946 64.183 65.8152 65.5 62.5 65.5Z" fill="#23295A"/>
</svg>
