<svg width="80" height="81" viewBox="0 0 80 81" fill="none" xmlns="http://www.w3.org/2000/svg">
<path d="M40.06 19.3833C40.1349 19.0635 40.2722 18.7615 40.4638 18.4948C40.6555 18.228 40.8979 18.0016 41.1772 17.8285C41.4564 17.6555 41.767 17.5392 42.0912 17.4862C42.4154 17.4333 42.7469 17.4448 43.0667 17.52C45.4712 18.0896 47.6704 19.3155 49.4195 21.061C51.1686 22.8066 52.3988 25.0033 52.9733 27.4067C53.1267 28.052 53.0175 28.7319 52.6696 29.2967C52.3217 29.8615 51.7637 30.2649 51.1183 30.4183C50.473 30.5717 49.7931 30.4624 49.2283 30.1146C48.6635 29.7667 48.2601 29.2087 48.1067 28.5633C47.7469 27.0626 46.9784 25.691 45.8863 24.6007C44.7942 23.5103 43.4213 22.744 41.92 22.3867C41.2754 22.2346 40.7174 21.8329 40.3687 21.2698C40.02 20.7067 39.9089 20.0282 40.06 19.3833Z" fill="#23295A"/>
<path d="M16.6667 30.5C16.6667 24.3116 19.125 18.3767 23.5008 14.0008C27.8767 9.62499 33.8116 7.16667 40 7.16667C46.1884 7.16667 52.1233 9.62499 56.4992 14.0008C60.875 18.3767 63.3333 24.3116 63.3333 30.5C63.3333 37.25 61.1 44.62 57.1667 50.3533C53.6933 55.42 48.69 59.4567 42.5 60.3267V61.3333C42.5 62.7133 43.62 63.8333 45 63.8333H55.8333C56.8182 63.8333 57.7935 64.0273 58.7035 64.4042C59.6134 64.7811 60.4402 65.3336 61.1366 66.03C61.8331 66.7265 62.3855 67.5533 62.7624 68.4632C63.1393 69.3731 63.3333 70.3484 63.3333 71.3333V74.6667C63.3333 75.3297 63.0699 75.9656 62.6011 76.4344C62.1323 76.9033 61.4964 77.1667 60.8333 77.1667C60.1703 77.1667 59.5344 76.9033 59.0656 76.4344C58.5967 75.9656 58.3333 75.3297 58.3333 74.6667V71.3333C58.3333 70.6703 58.0699 70.0344 57.6011 69.5656C57.1323 69.0967 56.4964 68.8333 55.8333 68.8333H45C43.0109 68.8333 41.1032 68.0432 39.6967 66.6366C38.2902 65.2301 37.5 63.3225 37.5 61.3333V60.3267C31.31 59.4567 26.3067 55.4167 22.8333 50.3533C18.9 44.62 16.6667 37.25 16.6667 30.5ZM40 12.1667C35.1377 12.1667 30.4745 14.0982 27.0364 17.5364C23.5982 20.9745 21.6667 25.6377 21.6667 30.5C21.6667 36.25 23.6 42.6333 26.9533 47.5233C30.3133 52.4167 34.8433 55.5 40 55.5C45.1567 55.5 49.6867 52.4167 53.0467 47.5233C56.4 42.63 58.3333 36.25 58.3333 30.5C58.3333 25.6377 56.4018 20.9745 52.9636 17.5364C49.5255 14.0982 44.8623 12.1667 40 12.1667Z" fill="#23295A"/>
<path fill-rule="evenodd" clip-rule="evenodd" d="M43.2204 16.8713C45.7449 17.4694 48.054 18.7564 49.8904 20.5891C51.7268 22.4219 53.0185 24.7283 53.6217 27.2517C53.816 28.069 53.6778 28.931 53.2372 29.6463C52.7966 30.3616 52.0899 30.8727 51.2725 31.0669C50.4551 31.2612 49.594 31.1228 48.8787 30.6822C48.1633 30.2416 47.6523 29.5349 47.4581 28.7175C47.1269 27.3371 46.4198 26.0754 45.4152 25.0724C44.4103 24.0692 43.1471 23.364 41.7656 23.0352C40.9491 22.8426 40.2437 22.334 39.8019 21.6208C39.3602 20.9075 39.2196 20.0481 39.4109 19.2313C39.5058 18.8262 39.6796 18.4437 39.9224 18.1057C40.1653 17.7678 40.4723 17.4811 40.826 17.2619C41.1797 17.0427 41.5731 16.8953 41.9838 16.8283C42.3944 16.7612 42.8153 16.776 43.2204 16.8713ZM22.8333 50.3533C18.9 44.62 16.6667 37.25 16.6667 30.5C16.6667 24.3116 19.125 18.3767 23.5008 14.0008C27.8767 9.62499 33.8116 7.16667 40 7.16667C46.1884 7.16667 52.1233 9.62499 56.4992 14.0008C60.875 18.3767 63.3333 24.3116 63.3333 30.5C63.3333 37.25 61.1 44.62 57.1667 50.3533C53.6933 55.42 48.69 59.4567 42.5 60.3267V61.3333C42.5 62.7133 43.62 63.8333 45 63.8333H55.8333C56.8182 63.8333 57.7935 64.0273 58.7035 64.4042C59.6134 64.7811 60.4402 65.3336 61.1366 66.03C61.8331 66.7265 62.3855 67.5533 62.7624 68.4632C63.1393 69.3731 63.3333 70.3484 63.3333 71.3333V74.6667C63.3333 75.3297 63.0699 75.9656 62.6011 76.4344C62.1323 76.9033 61.4964 77.1667 60.8333 77.1667C60.1703 77.1667 59.5344 76.9033 59.0656 76.4344C58.5967 75.9656 58.3333 75.3297 58.3333 74.6667V71.3333C58.3333 70.6703 58.0699 70.0344 57.6011 69.5656C57.1323 69.0967 56.4964 68.8333 55.8333 68.8333H45C43.0109 68.8333 41.1032 68.0432 39.6967 66.6366C38.2902 65.2301 37.5 63.3225 37.5 61.3333V60.3267C31.31 59.4567 26.3067 55.4167 22.8333 50.3533ZM36.8333 60.8969C30.6678 59.8312 25.7189 55.7383 22.2836 50.7304C18.2734 44.8851 16 37.3834 16 30.5C16 24.1348 18.5286 18.0303 23.0294 13.5294C27.5303 9.02856 33.6348 6.5 40 6.5C46.3652 6.5 52.4697 9.02856 56.9706 13.5294C61.4714 18.0303 64 24.1348 64 30.5C64 37.3833 61.7267 44.8849 57.7165 50.7303C54.2811 55.7417 49.332 59.8314 43.1667 60.8969V61.3333C43.1667 62.3451 43.9882 63.1667 45 63.1667H55.8333C56.9058 63.1667 57.9678 63.3779 58.9586 63.7883C59.9494 64.1987 60.8497 64.8003 61.608 65.5586C62.3664 66.317 62.9679 67.2173 63.3784 68.2081C63.7888 69.1989 64 70.2609 64 71.3333V74.6667C64 75.5065 63.6664 76.312 63.0725 76.9058C62.4786 77.4997 61.6732 77.8333 60.8333 77.8333C59.9935 77.8333 59.188 77.4997 58.5942 76.9058C58.0003 76.312 57.6667 75.5065 57.6667 74.6667V71.3333C57.6667 70.8471 57.4735 70.3808 57.1297 70.037C56.7859 69.6931 56.3196 69.5 55.8333 69.5H45C42.8341 69.5 40.7568 68.6396 39.2253 67.108C37.6938 65.5765 36.8333 63.4993 36.8333 61.3333V60.8969ZM40 12.8333C35.3145 12.8333 30.8209 14.6946 27.5078 18.0078C24.1946 21.3209 22.3333 25.8145 22.3333 30.5C22.3333 36.1167 24.2266 42.3683 27.5031 47.1463C30.7858 51.9268 35.1348 54.8333 40 54.8333C44.8653 54.8333 49.2144 51.9267 52.4971 47.146C55.7736 42.3645 57.6667 36.1164 57.6667 30.5C57.6667 25.8145 55.8054 21.3209 52.4922 18.0078C49.1791 14.6946 44.6855 12.8333 40 12.8333ZM53.0467 47.5233C49.6867 52.4167 45.1567 55.5 40 55.5C34.8433 55.5 30.3133 52.4167 26.9533 47.5233C23.6 42.6333 21.6667 36.25 21.6667 30.5C21.6667 25.6377 23.5982 20.9745 27.0364 17.5364C30.4745 14.0982 35.1377 12.1667 40 12.1667C44.8623 12.1667 49.5255 14.0982 52.9636 17.5364C56.4018 20.9745 58.3333 25.6377 58.3333 30.5C58.3333 36.25 56.4 42.63 53.0467 47.5233Z" fill="#23295A"/>
</svg>
