<svg width="80" height="81" viewBox="0 0 80 81" fill="none" xmlns="http://www.w3.org/2000/svg">
<path d="M69.6532 25.3201H50.8799V17.0334C50.8799 15.7354 49.8312 14.6867 48.5332 14.6867H18.6133V11.7534C18.6133 11.4307 18.3493 11.1667 18.0266 11.1667H13.9199C13.5973 11.1667 13.3333 11.4307 13.3333 11.7534V69.2467C13.3333 69.5694 13.5973 69.8334 13.9199 69.8334H18.0266C18.3493 69.8334 18.6133 69.5694 18.6133 69.2467V49.8867H36.7999V58.1734C36.7999 59.4714 37.8486 60.5201 39.1466 60.5201H69.6532C70.9512 60.5201 71.9999 59.4714 71.9999 58.1734V27.6667C71.9999 26.3687 70.9512 25.3201 69.6532 25.3201ZM18.6133 44.6067V19.9667H45.5999V44.6067H18.6133ZM66.7199 55.2401H42.0799V49.8867H50.2932C50.6159 49.8867 50.8799 49.6227 50.8799 49.3001V30.6001H66.7199V55.2401Z" fill="#23295A"/>
</svg>
