<svg width="80" height="81" viewBox="0 0 80 81" fill="none" xmlns="http://www.w3.org/2000/svg">
<path d="M43.5234 25.2701C45.0864 23.7071 47.2063 22.829 49.4168 22.829C51.6272 22.829 53.7471 23.7071 55.3101 25.2701C56.8731 26.8331 57.7512 28.953 57.7512 31.1635C57.7512 33.3739 56.8731 35.4938 55.3101 37.0568C53.7471 38.6198 51.6272 39.4979 49.4168 39.4979C47.2063 39.4979 45.0864 38.6198 43.5234 37.0568C41.9604 35.4938 41.0823 33.3739 41.0823 31.1635C41.0823 28.953 41.9604 26.8331 43.5234 25.2701ZM51.7734 28.8035C51.4637 28.494 51.0961 28.2485 50.6915 28.0811C50.287 27.9137 49.8534 27.8276 49.4156 27.8278C48.9777 27.8279 48.5442 27.9143 48.1398 28.082C47.7354 28.2497 47.3679 28.4954 47.0584 28.8051C46.7489 29.1148 46.5035 29.4824 46.3361 29.887C46.1687 30.2916 46.0826 30.7251 46.0827 31.163C46.0829 31.6008 46.1693 32.0343 46.337 32.4387C46.5047 32.8432 46.7504 33.2106 47.0601 33.5201C47.6888 34.1273 48.5308 34.4633 49.4048 34.4557C50.2787 34.4481 51.1148 34.0975 51.7328 33.4795C52.3508 32.8615 52.7014 32.0254 52.709 31.1515C52.7166 30.2775 52.3806 29.4355 51.7734 28.8068V28.8035Z" fill="#23295A"/>
<path d="M71.6968 14.91C71.2553 13.4902 70.4751 12.199 69.4235 11.1479C68.3718 10.0968 67.0802 9.31732 65.6601 8.87666L63.4501 8.18999C59.5356 6.97563 55.3638 6.85356 51.385 7.83695C47.4062 8.82035 43.7715 10.8719 40.8735 13.77L37.5535 17.0867C35.3079 15.4056 32.5315 14.5904 29.7335 14.7906C26.9355 14.9908 24.3035 16.193 22.3201 18.1767L18.1835 22.32C17.7153 22.7887 17.4523 23.4242 17.4523 24.0867C17.4523 24.7492 17.7153 25.3846 18.1835 25.8533L23.4868 31.1567L22.8868 31.7567C22.3451 32.2983 21.9153 32.9414 21.6221 33.6492C21.3289 34.357 21.178 35.1156 21.178 35.8817C21.178 36.6478 21.3289 37.4064 21.6221 38.1141C21.9153 38.8219 22.3451 39.465 22.8868 40.0067L24.5401 41.6567L19.8868 44.31C19.5528 44.5007 19.2673 44.766 19.0526 45.0851C18.8378 45.4041 18.6996 45.7685 18.6486 46.1497C18.5977 46.5309 18.6353 46.9188 18.7588 47.2831C18.8822 47.6473 19.088 47.9782 19.3601 48.25L32.3235 61.2167C32.5955 61.488 32.9263 61.6931 33.2904 61.8158C33.6545 61.9386 34.042 61.9758 34.4228 61.9245C34.8036 61.8733 35.1674 61.7349 35.486 61.5202C35.8047 61.3056 36.0696 61.0203 36.2601 60.6867L38.9201 56.0367L40.5768 57.6933C41.1185 58.2351 41.7616 58.6648 42.4693 58.958C43.1771 59.2512 43.9357 59.4021 44.7018 59.4021C45.4679 59.4021 46.2265 59.2512 46.9343 58.958C47.642 58.6648 48.2851 58.2351 48.8268 57.6933L49.4168 57.1067L54.7168 62.4067C55.1855 62.8748 55.821 63.1378 56.4835 63.1378C57.146 63.1378 57.7814 62.8748 58.2501 62.4067L62.3901 58.2633C64.3732 56.2811 65.5753 53.6506 65.7761 50.8539C65.977 48.0572 65.163 45.2819 63.4835 43.0367L66.8101 39.71C69.7095 36.8107 71.7614 33.1741 72.7443 29.1934C73.7272 25.2126 73.6035 21.0389 72.3868 17.1233L71.7001 14.91H71.6968ZM64.1768 13.65C65.4868 14.0567 66.5135 15.0833 66.9201 16.3933L67.6101 18.6067C68.556 21.6523 68.6517 24.8984 67.8868 27.9945C67.1219 31.0905 65.5255 33.9186 63.2701 36.1733L45.2868 54.16C45.1306 54.3157 44.919 54.4032 44.6985 54.4032C44.4779 54.4032 44.2663 54.3157 44.1101 54.16L26.4201 36.4667C26.2644 36.3105 26.177 36.0989 26.177 35.8783C26.177 35.6578 26.2644 35.4462 26.4201 35.29L44.4068 17.3C46.6615 15.0458 49.4893 13.4504 52.5846 12.6861C55.68 11.9218 58.9253 12.0177 61.9701 12.9633L64.1768 13.6467V13.65ZM59.8801 46.6367C61.3901 49.19 61.0468 52.5333 58.8535 54.7267L56.4801 57.1L52.9468 53.57L59.8801 46.6367ZM25.8601 21.7133C26.9044 20.6691 28.2661 20.0016 29.7312 19.8157C31.1962 19.6299 32.6815 19.9363 33.9535 20.6867L27.0201 27.62L23.4868 24.0867L25.8601 21.7133ZM35.2535 52.3733L33.5401 55.3633L25.2068 47.03L28.2001 45.3233L35.2535 52.3733Z" fill="#23295A"/>
<path d="M22.3 61.8168C22.7557 61.3455 23.008 60.7141 23.0026 60.0586C22.9972 59.4031 22.7346 58.776 22.2713 58.3122C21.8079 57.8485 21.181 57.5853 20.5255 57.5793C19.8701 57.5733 19.2384 57.825 18.7667 58.2801L10.5134 66.5301C10.0582 67.0019 9.8065 67.6335 9.8125 68.289C9.81851 68.9445 10.0817 69.5714 10.5455 70.0347C11.0092 70.498 11.6364 70.7606 12.2919 70.766C12.9474 70.7714 13.5787 70.5191 14.05 70.0635L22.3 61.8168Z" fill="#23295A"/>
<path d="M15.8167 51.8C16.2849 52.2688 16.5479 52.9042 16.5479 53.5667C16.5479 54.2292 16.2849 54.8646 15.8167 55.3333L12.2834 58.8667C12.0529 59.1056 11.7771 59.2961 11.4722 59.4273C11.1672 59.5585 10.8392 59.6276 10.5073 59.6306C10.1753 59.6337 9.8461 59.5706 9.5388 59.445C9.2315 59.3195 8.95228 59.134 8.71744 58.8993C8.4826 58.6647 8.29684 58.3857 8.17099 58.0785C8.04514 57.7713 7.98173 57.4421 7.98446 57.1102C7.98719 56.7783 8.056 56.4502 8.18687 56.1451C8.31775 55.84 8.50807 55.5641 8.74674 55.3333L12.2801 51.8C12.5122 51.5677 12.7879 51.3834 13.0913 51.2577C13.3947 51.1319 13.72 51.0672 14.0484 51.0672C14.3768 51.0672 14.7021 51.1319 15.0055 51.2577C15.3089 51.3834 15.5846 51.5677 15.8167 51.8Z" fill="#23295A"/>
<path d="M28.7735 68.3032C29.0191 68.0744 29.2161 67.7984 29.3527 67.4917C29.4894 67.185 29.5628 66.854 29.5688 66.5183C29.5747 66.1826 29.5129 65.8492 29.3872 65.5379C29.2615 65.2266 29.0743 64.9438 28.8369 64.7064C28.5995 64.469 28.3167 64.2819 28.0055 64.1562C27.6942 64.0304 27.3607 63.9687 27.0251 63.9746C26.6894 63.9805 26.3583 64.054 26.0517 64.1906C25.745 64.3273 25.469 64.5243 25.2401 64.7699L21.7101 68.2966C21.2685 68.7705 21.0281 69.3973 21.0395 70.045C21.051 70.6926 21.3133 71.3106 21.7714 71.7686C22.2294 72.2267 22.8474 72.489 23.495 72.5005C24.1427 72.5119 24.7695 72.2715 25.2435 71.8299L28.7768 68.3032H28.7735Z" fill="#23295A"/>
</svg>
